<?xml version="1.0" encoding="utf-8"?>
<!-- Generator: Adobe Illustrator 25.2.1, SVG Export Plug-In . SVG Version: 6.00 Build 0)  -->
<svg version="1.1" id="Capa_1" xmlns="http://www.w3.org/2000/svg" xmlns:xlink="http://www.w3.org/1999/xlink" x="0px" y="0px"
	 viewBox="0 0 671 1155" style="enable-background:new 0 0 671 1155;" xml:space="preserve">
<style type="text/css">
	.st0{fill:none;stroke:#000000;stroke-width:11;stroke-miterlimit:10;}
	.st1{stroke:#000000;stroke-width:0.75;stroke-miterlimit:10;}
	.st2{fill:#688BB3;}
</style>
<path class="st0" d="M112.5,754.5"/>
<path class="st1" d="M132.5,1110.5c-12,0.7-24,1.3-36,2c-1.3-121-2.7-242-4-363c11.3-3.7,22.7-7.3,34-11
	C128.5,862.5,130.5,986.5,132.5,1110.5z"/>
<path class="st1" d="M194.7,1086.3c-12,0.7-24,1.3-36,2c-1.3-121-2.7-242-4-363c11.3-3.7,22.7-7.3,34-11
	C190.7,838.3,192.7,962.3,194.7,1086.3z"/>
<path class="st1" d="M305.5,1122.5c-10.7,0-21.3,0-32,0c-0.3-138-0.7-276-1-414c9,0,18,0,27,0C301.5,846.5,303.5,984.5,305.5,1122.5
	z"/>
<path class="st1" d="M521.5,1121.5c-8.7,0.3-17.3,0.7-26,1c-0.3-134.7-0.7-269.3-1-404c8.3,1,16.7,2,25,3
	C520.2,854.8,520.8,988.2,521.5,1121.5z"/>
<path class="st1" d="M494.5,776.5c-39.6,8.8-89.8,16.4-148,17c-62.2,0.6-115.6-7.1-157-16c0-6.3,0-12.7,0-19
	c45.1,5.4,96.1,9.1,152,9c58-0.1,110.6-4.1,157-10C497.2,763.8,495.8,770.2,494.5,776.5z"/>
<path class="st1" d="M583.5,1122.5c-8.7,0-17.3,0-26,0c-0.3-131-0.7-262-1-393c8.3,4.7,16.7,9.3,25,14
	C582.2,869.8,582.8,996.2,583.5,1122.5z"/>
<path class="st1" d="M610.5,739.5c-57.3-23.1-159.2-55.5-289-51c-113.8,3.9-202.9,34.6-257,58c0-7.7,0-15.3,0-23
	c5.4-5.9,14-14.5,26-23c14.6-10.4,43.2-27,156-36c14.9-1.2,46.9-3.5,88-4c23.4-0.3,49.5-0.5,84,2c36.6,2.7,62.6,7,80,10
	c47.4,8.1,61.5,14.3,69,18c19.9,9.8,34,22,43,31C610.5,727.5,610.5,733.5,610.5,739.5z"/>
<path class="st1" d="M565.5,669.5c-37.4-10.7-79.9-20.1-127-26c-122.7-15.3-227.7-0.8-303,17c-0.7-2.3-1.3-4.7-2-7
	c54.3-17.1,140.8-36.7,247-29c75.8,5.5,138.1,23.2,183,40C564.2,666.2,564.8,667.8,565.5,669.5z"/>
<path class="st1" d="M618.5,652.5c-54.1-21.1-135.7-45.5-237-49c-138-4.8-246.4,31.4-307,57c0-7.7,0-15.3,0-23
	c8.4-8.7,22.5-21.6,43-32c6-3,21.8-10.6,74-20c31.1-5.6,55.1-8.3,62-9c20.9-2.2,55.8-5.9,101-5c19.4,0.4,39.8,2.3,80,6
	c106.7,10,130.3,16.2,154,32c14.1,9.4,24,19.4,30,26C618.5,641.2,618.5,646.8,618.5,652.5z"/>
<path class="st2" d="M497.5,521.5c-1.5-11.6-4.5-31.2-10-55c-13.7-59-25.9-111.2-61.5-123.5c-14.4-5-28.1-1.8-34.3,0.1
	c0,0-1.4,0.4-2.7,0.9c-21.9,8-46.9,66.9-56.4,128.5c-1.8,11.4-2.7,20.7-3.1,26c-1.6,18.8-1.5,34.9-1,47
	c-30.8-21.5-61.7-43-92.5-64.5c1.2-20.3,2.9-75.8-16-109c-3.5-6.2-10-17.2-20.5-18.5c-1.9-0.2-9.3-0.1-24,12
	c-14.1,11.6-19.8,25.5-25,38c-37.2,89.8-36.8,88.2-37,89c-2.3,11.5-7.2,21-17,40c-1.1,2.1-3.3,6.4-5,6c-2.4-0.5-2.1-10.4-2-14
	c4.5-152.4,73-231,73-231c18.9-21.7,38.2-36.8,45-42c11.9-9.1,32.1-24.2,61-36c21.9-8.9,54.5-22.3,97-17c43.9,5.5,73.4,27.7,84,36
	c24.1,18.7,37.4,39.1,55,66c13.6,20.7,9.3,21.9,23,43c12.6,19.4,25.6,34.3,20.6,43.2c-2,3.5-4.7,2.3-10.2,8
	c-2.1,2.2-3.7,6-10.7,19.9c-2.4,4.8-4.9,10.9-7.2,19.4c-4.3,15.5-3.3,21.2-10,46c-2.5,9.1-4.9,16.6-6.5,21.5
	C501.5,508.2,499.5,514.8,497.5,521.5z"/>
<path class="st1" d="M588.5,551.5c-3.6-12.9-9.1-33.1-16-58c-13.2-47.5-16.2-58-18-64c-12.1-41-17.9-61.6-26-80
	c-13-29.4-31.5-71.3-73-106c-14.8-12.4-43.9-36.7-85-44c-73.4-13-135.3,37.5-158,56c-112.2,91.4-109.8,248.2-109,275
	c-5.3,4-10.7,8-16,12c3.1-80.1,20.9-141,35-179c20.7-55.6,42.2-85.3,54-100c24.7-30.8,47.5-47.1,53-51c30.5-21.4,58.9-30.4,72-34
	c5.2-1.4,37.9-10.2,71-8c79.9,5.2,130.3,66.4,140,78c24.6,29.3,36.1,58.6,42,74c8.5,22.1,11.7,39.4,18,74c7.6,41.6,10.5,76,13,108
	C587,524,588,540.2,588.5,551.5z"/>
<path class="st1" d="M229.5,502.5c0-64.4-7.2-104.9-12.1-125.8c-4-17.5-10.2-37.6-23.9-41.2c-1.2-0.3-6.9-1.7-15,2
	c-25.5,11.5-32.5,53.1-42,90c-6.6,25.6-17.5,60.6-36.2,101.8c-0.1-1-0.2-2.5-0.3-4.3c-1.5-21.2,3-37.5,5-68.2
	c0.6-9.9,2.2-24.1,6.5-41.3c6.6-23.9,14.4-42.9,20.7-56.4c18.2-39.1,28.7-43.3,33.3-44.6c13.2-3.6,26.3,3.5,33.3,8.2
	c5.5,4.7,13.2,12.5,19.7,23.8c7.6,13.3,8.7,23.3,12.2,45.1c0,0,9.5,58.7,6.1,105.5c-0.1,1.6-0.5,4.3-2.3,5.4
	C232.9,503.5,230.7,503,229.5,502.5z"/>
<path class="st1" d="M478.5,473.5c-7.1-72.3-43.3-121.4-71-121c-28.9,0.4-67.1,55.2-66,137c-3.3-1.3-6.7-2.7-10-4
	c-0.9-6.2-13.8-104.3,44-143c6.7-4.5,20.5-13.7,37-12c36.3,3.8,68.5,58.6,76,139C485.2,470.8,481.8,472.2,478.5,473.5z"/>
<path class="st1" d="M548.5,395.5c-8.4,12.7-18.9,31.9-25,57c-3.5,14.3-4.7,27.3-5,38c-2.3-0.3-4.7-0.7-7-1c-2-10.9-4.5-33.1,4-59
	c7.1-21.6,18.8-36.2,26-44C543.8,389.5,546.2,392.5,548.5,395.5z"/>
<path class="st1" d="M352.5,44.5c-3.9,4-24.9,24.4-57,24c-21.4-0.3-36.8-9.7-43-14c-0.3-7.7-0.7-15.3-1-23c2.5,2.6,22,22.4,52,20
	c27.8-2.2,43.5-21.8,46-25C350.5,32.5,351.5,38.5,352.5,44.5z"/>
<path class="st1" d="M459.5,65.5c-6.9,3.8-25.1,12.4-49,10c-30.5-3-49.2-21.9-54-27c-1.3-6.7-2.7-13.3-4-20c5.3,5.3,13.9,13,26,20
	c15.6,9.1,34.5,20,54,14c4.3-1.3,16.8-6,27-23C459.5,48.2,459.5,56.8,459.5,65.5z"/>
<path class="st1" d="M345.5,131.5c-2.3-15-2.9-26.8-3-35c0-2,0-3.7,0-6c0-6.7,0.1-20.3,1-31c0.7-7.9,2.2-19.1,6-33c3,2.7,6,5.3,9,8
	c2.5,9.6,4,17.9,5,24c4.1,26.2,3,47.4,2,59c-0.6,6.7-1.4,12.2-2,16C357.5,132.8,351.5,132.2,345.5,131.5z"/>
<path class="st1" d="M459.5,65.5c-2.7,29.7-5.3,59.3-8,89c-3.7-2-7.3-4-11-6c0.7-25.3,1.3-50.7,2-76
	C448.2,70.2,453.8,67.8,459.5,65.5z"/>
<path class="st1" d="M264.5,59.5c3,29.7,6,59.3,9,89c-4.7,2.7-9.3,5.3-14,8c-2.3-34-4.7-68-7-102C256.5,56.2,260.5,57.8,264.5,59.5z
	"/>
<path class="st1" d="M482.5,179.5c-0.2,1.1-0.6,3.4-2.3,5.7c-2,2.7-4.6,3.9-5.7,4.3c-14.5-10.6-55.7-37.8-115-39
	c-66.3-1.4-112.3,30.7-126,41c-0.6-1.3-1.5-3.8-1.5-7c0-3.2,0.9-5.6,1.5-7c3.6-5.4,9.7-13.1,19-20c8.6-6.4,19-11.4,50-18
	c23-4.9,34.4-7.3,48-8c18.2-0.9,63.2-2.6,105,25C468.3,164.9,477.3,173.8,482.5,179.5z"/>
<path class="st1" d="M480.5,182.9c-1.9,2.8-4.5,6.2-8,9.6c-4.3,4.2-8.6,7.1-12,9c-3.8-1.2-7.7-2.3-11.5-3.5c3.4-3.4,7.4-7,12-10.5
	c2.9-2.2,5.8-4.2,8.5-6c0.7-0.4,3.3-1.7,6.5-1C478.3,181,479.8,182.3,480.5,182.9z"/>
<path class="st1" d="M244.5,183.5c5.1,5,10.2,10,15.3,15c-2,0.8-4.1,1.8-6.4,3.1c-2.2,1.2-4.1,2.4-5.9,3.6c-2.5-2.7-5.2-5.4-8.1-8.1
	c-2-1.9-4-3.8-6-5.5C237.2,188.8,240.8,186.2,244.5,183.5z"/>
</svg>
