<?xml version="1.0" encoding="utf-8"?>
<!-- Generator: Adobe Illustrator 25.2.1, SVG Export Plug-In . SVG Version: 6.00 Build 0)  -->
<svg version="1.1" id="Capa_1" xmlns="http://www.w3.org/2000/svg" xmlns:xlink="http://www.w3.org/1999/xlink" x="0px" y="0px"
	 viewBox="0 0 671 1155" enable-background="new 0 0 671 1155" xml:space="preserve">
<path fill="none" stroke="#000000" stroke-width="11" stroke-miterlimit="10" d="M112.5,754.5"/>
<path stroke="#000000" stroke-width="0.75" stroke-miterlimit="10" d="M132.5,1110.5c-12,0.7-24,1.3-36,2c-1.3-121-2.7-242-4-363
	c11.3-3.7,22.7-7.3,34-11C128.5,862.5,130.5,986.5,132.5,1110.5z"/>
<path stroke="#000000" stroke-width="0.75" stroke-miterlimit="10" d="M194.7,1086.3c-12,0.7-24,1.3-36,2c-1.3-121-2.7-242-4-363
	c11.3-3.7,22.7-7.3,34-11C190.7,838.3,192.7,962.3,194.7,1086.3z"/>
<path stroke="#000000" stroke-width="0.75" stroke-miterlimit="10" d="M305.5,1122.5c-10.7,0-21.3,0-32,0c-0.3-138-0.7-276-1-414
	c9,0,18,0,27,0C301.5,846.5,303.5,984.5,305.5,1122.5z"/>
<path stroke="#000000" stroke-width="0.75" stroke-miterlimit="10" d="M521.5,1121.5c-8.7,0.3-17.3,0.7-26,1
	c-0.3-134.7-0.7-269.3-1-404c8.3,1,16.7,2,25,3C520.2,854.8,520.8,988.2,521.5,1121.5z"/>
<path stroke="#000000" stroke-width="0.75" stroke-miterlimit="10" d="M494.5,776.5c-39.6,8.8-89.8,16.4-148,17
	c-62.2,0.6-115.6-7.1-157-16c0-6.3,0-12.7,0-19c45.1,5.4,96.1,9.1,152,9c58-0.1,110.6-4.1,157-10
	C497.2,763.8,495.8,770.2,494.5,776.5z"/>
<path stroke="#000000" stroke-width="0.75" stroke-miterlimit="10" d="M583.5,1122.5c-8.7,0-17.3,0-26,0c-0.3-131-0.7-262-1-393
	c8.3,4.7,16.7,9.3,25,14C582.2,869.8,582.8,996.2,583.5,1122.5z"/>
<path stroke="#000000" stroke-width="0.75" stroke-miterlimit="10" d="M610.5,739.5c-57.3-23.1-159.2-55.5-289-51
	c-113.8,3.9-202.9,34.6-257,58c0-7.7,0-15.3,0-23c5.4-5.9,14-14.5,26-23c14.6-10.4,43.2-27,156-36c14.9-1.2,46.9-3.5,88-4
	c23.4-0.3,49.5-0.5,84,2c36.6,2.7,62.6,7,80,10c47.4,8.1,61.5,14.3,69,18c19.9,9.8,34,22,43,31C610.5,727.5,610.5,733.5,610.5,739.5
	z"/>
<path stroke="#000000" stroke-width="0.75" stroke-miterlimit="10" d="M565.5,669.5c-37.4-10.7-79.9-20.1-127-26
	c-122.7-15.3-227.7-0.8-303,17c-0.7-2.3-1.3-4.7-2-7c54.3-17.1,140.8-36.7,247-29c75.8,5.5,138.1,23.2,183,40
	C564.2,666.2,564.8,667.8,565.5,669.5z"/>
<path stroke="#000000" stroke-width="0.75" stroke-miterlimit="10" d="M618.5,652.5c-54.1-21.1-135.7-45.5-237-49
	c-138-4.8-246.4,31.4-307,57c0-7.7,0-15.3,0-23c8.4-8.7,22.5-21.6,43-32c6-3,21.8-10.6,74-20c31.1-5.6,55.1-8.3,62-9
	c20.9-2.2,55.8-5.9,101-5c19.4,0.4,39.8,2.3,80,6c106.7,10,130.3,16.2,154,32c14.1,9.4,24,19.4,30,26
	C618.5,641.2,618.5,646.8,618.5,652.5z"/>
<path fill="#688BB3" d="M497.5,521.5c-1.5-11.6-4.5-31.2-10-55c-13.7-59-25.9-111.2-61.5-123.5c-17.2-5.9-33.3-0.3-37,1
	c-47.6,16.7-62,93.3-60.5,127.5c0.2,4.1,0.4,13.1,1,27c1.3,31.2-1,47-1,47c-30.8-21.5-61.7-43-92.5-64.5c1.2-20.3,2.9-75.8-16-109
	c-3.5-6.2-10-17.2-20.5-18.5c-1.9-0.2-9.3-0.1-24,12c-14.1,11.6-19.8,25.5-25,38c-37.2,89.8-36.8,88.2-37,89c-2.3,11.5-7.2,21-17,40
	c-1.1,2.1-3.3,6.4-5,6c-2.4-0.5-2.1-10.4-2-14c4.5-152.4,73-231,73-231c18.9-21.7,38.2-36.8,45-42c11.9-9.1,32.1-24.2,61-36
	c21.9-8.9,54.5-22.3,97-17c43.9,5.5,73.4,27.7,84,36c24.1,18.7,37.4,39.1,55,66c4.4,6.7,14,21.9,23,43c8.3,19.4,12.4,29.1,12,41
	c-0.6,19.4-10.9,18.4-19.5,49.5c-4.3,15.5-3.3,21.2-10,46c-2.5,9.1-4.9,16.6-6.5,21.5C501.5,508.2,499.5,514.8,497.5,521.5z"/>
<path stroke="#000000" stroke-width="0.75" stroke-miterlimit="10" d="M588.5,551.5c-3.6-12.9-9.1-33.1-16-58
	c-13.2-47.5-16.2-58-18-64c-12.1-41-17.9-61.6-26-80c-13-29.4-31.5-71.3-73-106c-14.8-12.4-43.9-36.7-85-44
	c-73.4-13-135.3,37.5-158,56c-112.2,91.4-109.8,248.2-109,275c-5.3,4-10.7,8-16,12c3.1-80.1,20.9-141,35-179
	c20.7-55.6,42.2-85.3,54-100c24.7-30.8,47.5-47.1,53-51c30.5-21.4,58.9-30.4,72-34c5.2-1.4,37.9-10.2,71-8
	c79.9,5.2,130.3,66.4,140,78c24.6,29.3,36.1,58.6,42,74c8.5,22.1,11.7,39.4,18,74c7.6,41.6,10.5,76,13,108
	C587,524,588,540.2,588.5,551.5z"/>
<path stroke="#000000" stroke-width="0.75" stroke-miterlimit="10" d="M229.5,502.5c-8.4-52.1-14.2-92.2-18-125
	c-1.4-12.1-4.2-37.3-18-42c-6.2-2.1-12.4,0.7-15,2c-25.6,12.3-34.3,58.9-42,90c-6.7,27-18.4,65-40,110c2.3-8.3,4.7-16.7,7-25
	c-1.9-41.5,3.2-74.8,8-97c0,0,18.2-83.4,54-101c8.1-4,16-4,16-4c0,0,0,0,0,0c1.6,0,18.6,1.1,37,36c31.3,59.4,14.6,118.1,18,145
	c0.3,2,1.3,9-2,11C232.9,503.5,230.8,502.9,229.5,502.5z"/>
<path stroke="#000000" stroke-width="0.75" stroke-miterlimit="10" d="M478.5,473.5c-7.1-72.3-43.3-121.4-71-121
	c-28.9,0.4-67.1,55.2-66,137c-3.3-1.3-6.7-2.7-10-4c-0.9-6.2-13.8-104.3,44-143c6.7-4.5,20.5-13.7,37-12c36.3,3.8,68.5,58.6,76,139
	C485.2,470.8,481.8,472.2,478.5,473.5z"/>
<path stroke="#000000" stroke-width="0.75" stroke-miterlimit="10" d="M548.5,395.5c-8.4,12.7-18.9,31.9-25,57
	c-3.5,14.3-4.7,27.3-5,38c-2.3-0.3-4.7-0.7-7-1c-2-10.9-4.5-33.1,4-59c7.1-21.6,18.8-36.2,26-44
	C543.8,389.5,546.2,392.5,548.5,395.5z"/>
<path stroke="#000000" stroke-width="0.75" stroke-miterlimit="10" d="M352.5,44.5c-3.9,4-24.9,24.4-57,24c-21.4-0.3-36.8-9.7-43-14
	c-0.3-7.7-0.7-15.3-1-23c2.5,2.6,22,22.4,52,20c27.8-2.2,43.5-21.8,46-25C350.5,32.5,351.5,38.5,352.5,44.5z"/>
<path stroke="#000000" stroke-width="0.75" stroke-miterlimit="10" d="M459.5,65.5c-6.9,3.8-25.1,12.4-49,10
	c-30.5-3-49.2-21.9-54-27c-1.3-6.7-2.7-13.3-4-20c5.3,5.3,13.9,13,26,20c15.6,9.1,34.5,20,54,14c4.3-1.3,16.8-6,27-23
	C459.5,48.2,459.5,56.8,459.5,65.5z"/>
<path stroke="#000000" stroke-width="0.75" stroke-miterlimit="10" d="M345.5,131.5c-2.3-15-2.9-26.8-3-35c0-2,0-3.7,0-6
	c0-6.7,0.1-20.3,1-31c0.7-7.9,2.2-19.1,6-33c3,2.7,6,5.3,9,8c2.5,9.6,4,17.9,5,24c4.1,26.2,3,47.4,2,59c-0.6,6.7-1.4,12.2-2,16
	C357.5,132.8,351.5,132.2,345.5,131.5z"/>
<path stroke="#000000" stroke-width="0.75" stroke-miterlimit="10" d="M459.5,65.5c-2.7,29.7-5.3,59.3-8,89c-3.7-2-7.3-4-11-6
	c0.7-25.3,1.3-50.7,2-76C448.2,70.2,453.8,67.8,459.5,65.5z"/>
<path stroke="#000000" stroke-width="0.75" stroke-miterlimit="10" d="M264.5,59.5c3,29.7,6,59.3,9,89c-4.7,2.7-9.3,5.3-14,8
	c-2.3-34-4.7-68-7-102C256.5,56.2,260.5,57.8,264.5,59.5z"/>
<path stroke="#000000" stroke-width="0.75" stroke-miterlimit="10" d="M482.5,179.5c-2.7,3.3-5.3,6.7-8,10
	c-14.5-10.6-55.7-37.8-115-39c-66.3-1.4-112.3,30.7-126,41c0-4.7,0-9.3,0-14c3.6-5.4,9.7-13.1,19-20c8.6-6.4,19-11.4,50-18
	c23-4.9,34.4-7.3,48-8c18.2-0.9,63.2-2.6,105,25C468.3,164.9,477.3,173.8,482.5,179.5z"/>
<path stroke="#000000" stroke-width="0.75" stroke-miterlimit="10" d="M482.5,179.5c-2,3.6-5.2,8.3-10,13c-4.3,4.2-8.6,7.1-12,9
	c-2.7-2.7-5.3-5.3-8-8c5.7-4,11.3-8,17-12C473.8,180.8,478.2,180.2,482.5,179.5z"/>
<path stroke="#000000" stroke-width="0.75" stroke-miterlimit="10" d="M244.5,183.5c3.7,3.7,7.3,7.3,11,11c-3.3,2.7-6.7,5.3-10,8
	c-4-3.7-8-7.3-12-11C237.2,188.8,240.8,186.2,244.5,183.5z"/>
</svg>
